<svg xmlns="http://www.w3.org/2000/svg" xmlns:svgjs="http://svgjs.com/svgjs" xmlns:xlink="http://www.w3.org/1999/xlink" width="288" height="288"><svg xmlns="http://www.w3.org/2000/svg" width="288" height="288" viewBox="-5.29 0 64.866 64.866"><g class="color000 svgShape" data-name="Group 156" transform="translate(-80.593 -434.493)"><path fill="#fff" stroke="#fff" stroke-linecap="round" stroke-linejoin="round" stroke-width="2.592" d="M112.733,485.6V437.78a1.991,1.991,0,0,0-1.99-1.991H83.879a1.991,1.991,0,0,0-1.99,1.991v34.907a1.99,1.99,0,0,0,1.99,1.99h20.165l1.985,5.8C111.888,490.333,112.733,485.6,112.733,485.6Z" class="colorfff svgShape colorStrokeff0050 svgStroke" data-name="Path 513"/><line x2="11.696" fill="#fff" stroke="#fff" stroke-miterlimit="10" stroke-width="2.592" class="colorStrokeff0050 svgStroke" data-name="Line 94" transform="translate(87.153 445.008)"/><line x2="11.696" fill="#fff" stroke="#fff" stroke-miterlimit="10" stroke-width="2.592" class="colorStrokeff0050 svgStroke" data-name="Line 95" transform="translate(87.153 452.174)"/><g class="color000 svgShape" data-name="Group 148"><line x2="11.696" fill="#fff" stroke="#fff" stroke-miterlimit="10" stroke-width="2.592" class="colorStrokeff0050 svgStroke" data-name="Line 96" transform="translate(87.153 459.342)"/></g><path fill="#fff" stroke="#fff" stroke-miterlimit="10" stroke-width="2.592" d="M95.987,440.226" class="colorfff svgShape colorStrokeff0050 svgStroke" data-name="Path 514"/><path fill="#fff" stroke="#fff" stroke-miterlimit="10" stroke-width="2.592" d="M95.987,440.226" class="colorfff svgShape colorStrokeff0050 svgStroke" data-name="Path 515"/><path fill="#fff" stroke="#fff" stroke-linecap="round" stroke-linejoin="round" stroke-width="2.074" d="M107.744,441.482l-3.348,3.348-1.7-1.7" class="colorfff svgShape colorStrokeff0050 svgStroke" data-name="Path 516"/><g class="color000 svgShape" data-name="Group 149"><line x2="11.696" fill="#fff" stroke="#fff" stroke-miterlimit="10" stroke-width="2.592" class="colorStrokeff0050 svgStroke" data-name="Line 97" transform="translate(87.153 466.393)"/></g><path fill="#fff" stroke="#fff" stroke-linecap="round" stroke-linejoin="round" stroke-width="2.592" d="M118.436,471.656a7.622,7.622,0,0,1-11.915,0C93.108,473.483,91.742,481.9,91.742,492.02c0,.709,3.008,2.372,6.4,2.372l.029-.056c0,.334,0,.661,0,.973a38.565,38.565,0,0,0,14.307,2.754,37.806,37.806,0,0,0,14.306-2.809c0-.3,0-.606,0-.922l.03.06c3.394,0,6.4-1.663,6.4-2.372C133.215,481.9,131.865,473.481,118.436,471.656Z" class="colorfff svgShape colorStrokeff0050 svgStroke" data-name="Path 517"/><g class="color000 svgShape" data-name="Group 150"><path fill="#fff" d="M121.083,457.68c0,5.768-4.088,10.812-8.229,10.812s-7.949-5.051-8.229-10.812,3.139-10.445,8.229-10.445S121.083,451.911,121.083,457.68Z" class="colorfff svgShape" data-name="Path 518"/><path fill="none" stroke="#fff" stroke-linecap="round" stroke-linejoin="round" stroke-width="2.592" d="M121.083,457.68c0,5.768-4.088,10.812-8.229,10.812s-7.949-5.051-8.229-10.812,3.139-10.445,8.229-10.445S121.083,451.911,121.083,457.68Z" class="colorStrokeff0050 svgStroke" data-name="Path 519"/></g><g class="color000 svgShape" data-name="Group 154"><g class="color000 svgShape" data-name="Group 151"><path fill="#fff" stroke="#fff" stroke-linecap="round" stroke-linejoin="round" stroke-width="2.592" d="M93.39,484.242c0,.709,1.728,2.372,5.122,2.372" class="colorfff svgShape colorStrokeff0050 svgStroke" data-name="Path 520"/></g><g class="color000 svgShape" data-name="Group 152"><path fill="#fff" stroke="#fff" stroke-linecap="round" stroke-linejoin="round" stroke-width="2.592" d="M133.582,491.922c0,.71-3.008,2.373-6.4,2.373" class="colorfff svgShape colorStrokeff0050 svgStroke" data-name="Path 521"/></g><g class="color000 svgShape" data-name="Group 153"><path fill="#fff" stroke="#fff" stroke-linecap="round" stroke-linejoin="round" stroke-width="2.592" d="M133.582,491.922c0-10.118-1.35-18.538-14.779-20.364a7.621,7.621,0,0,1-11.914,0c-13.414,1.828-14.78,10.247-14.78,20.364" class="colorfff svgShape colorStrokeff0050 svgStroke" data-name="Path 522"/></g></g><g class="color000 svgShape" data-name="Group 155"><path fill="#fff" stroke="#fff" stroke-linecap="round" stroke-linejoin="round" stroke-width="2.592" d="M99.943,482.116c-1.441,3.67-1.4,9.255-1.4,13.1a38.581,38.581,0,0,0,14.306,2.753,37.8,37.8,0,0,0,14.306-2.809c0-3.49-.03-8.517-1.048-12.009" class="colorfff svgShape colorStrokeff0050 svgStroke" data-name="Path 523"/></g></g></svg></svg>